<svg width="36" height="37" viewBox="0 0 36 37" fill="none" xmlns="http://www.w3.org/2000/svg">
<path d="M18 1.4043C27.389 1.4043 35 9.01717 35 18.4072C34.9997 27.7971 27.3888 35.4092 18 35.4092C8.61117 35.4092 1.00025 27.7971 1 18.4072C1 9.01717 8.61101 1.4043 18 1.4043Z" fill="white" stroke="black" stroke-width="2"/>
<path d="M8.61474 24.0716C7.33627 23.2714 7.36982 21.3977 8.67612 20.6437L17.099 15.7824C17.7176 15.4254 18.4796 15.4254 19.0981 15.7824L27.521 20.6437C28.8273 21.3977 28.8609 23.2714 27.5824 24.0716L19.1595 29.3438C18.5105 29.75 17.6866 29.75 17.0376 29.3438L8.61474 24.0716Z" fill="#1D70B8" stroke="black"/>
<path d="M8.61474 20.0716C7.33627 19.2714 7.36982 17.3977 8.67612 16.6437L17.099 11.7824C17.7176 11.4254 18.4796 11.4254 19.0981 11.7824L27.521 16.6437C28.8273 17.3977 28.8609 19.2714 27.5824 20.0716L19.1595 25.3438C18.5105 25.75 17.6866 25.75 17.0376 25.3438L8.61474 20.0716Z" fill="#6AA1D0" fill-opacity="0.75" stroke="black"/>
<path d="M8.61474 16.0697C7.33627 15.2695 7.36982 13.3957 8.67612 12.6418L17.099 7.78048C17.7176 7.42348 18.4796 7.42348 19.0981 7.78048L27.521 12.6418C28.8273 13.3957 28.8609 15.2695 27.5824 16.0697L19.1595 21.3418C18.5105 21.748 17.6866 21.748 17.0376 21.3418L8.61474 16.0697Z" fill="white" fill-opacity="0.75" stroke="black"/>
</svg>
